<svg width="33" height="32" viewBox="0 0 33 32" fill="none" xmlns="http://www.w3.org/2000/svg">
<rect width="33" height="32" fill="#EDEDED"/>
<g id="school-universal" clip-path="url(#clip0_2415_26437)">
<rect width="1440" height="6143" transform="translate(-254 -1258)" fill="white"/>
<g id="1/4 Layout 1">
<rect width="1440" height="832" transform="translate(-254 -415)" fill="white"/>
<g id="container">
<g id="row">
<g id="col-md-3">
<g id="card" filter="url(#filter0_d_2415_26437)">
<rect width="238" height="292" transform="translate(-58.5 -57)" fill="white"/>
<g id="fixed-width sec-">
<path d="M-18.5 -12C-18.5 -17.5228 -14.0228 -22 -8.5 -22H41.5C47.0229 -22 51.5 -17.5228 51.5 -12V44C51.5 49.5229 47.0229 54 41.5 54H-8.5C-14.0228 54 -18.5 49.5229 -18.5 44V-12Z" fill="#EFF8ED"/>
<g id="icon cool-icon-n2" clip-path="url(#clip1_2415_26437)">
<g id="012-blackboards" clip-path="url(#clip2_2415_26437)">
<path id="Vector" d="M2.21484 19.9994C2.21484 20.315 2.4707 20.5709 2.78627 20.5709H30.2148C30.5304 20.5709 30.7863 20.315 30.7863 19.9994V2.28516H2.21484V19.9994Z" fill="#E74040"/>
<path id="Vector_2" d="M31.9286 0H1.07143C0.755859 0 0.5 0.255859 0.5 0.571429C0.5 0.886998 0.755859 1.14286 1.07143 1.14286H31.9286C32.2441 1.14286 32.5 0.886998 32.5 0.571429C32.5 0.255859 32.2441 0 31.9286 0Z" fill="#E74040"/>
<path id="Vector_3" d="M21.072 29.7148H17.072V22.8577H17.6434C17.959 22.8577 18.2148 22.6018 18.2148 22.2863V21.7148H14.7863V22.2863C14.7863 22.6018 15.0421 22.8577 15.3577 22.8577H15.9291V29.7148H11.9291C10.9824 29.7148 10.2148 30.4824 10.2148 31.4291V32.0006H22.7863V31.4291C22.7863 30.4824 22.0187 29.7148 21.072 29.7148Z" fill="#E74040"/>
</g>
</g>
</g>
</g>
</g>
</g>
</g>
</g>
</g>
<defs>
<filter id="filter0_d_2415_26437" x="-77.5" y="-63" width="276" height="330" filterUnits="userSpaceOnUse" color-interpolation-filters="sRGB">
<feFlood flood-opacity="0" result="BackgroundImageFix"/>
<feColorMatrix in="SourceAlpha" type="matrix" values="0 0 0 0 0 0 0 0 0 0 0 0 0 0 0 0 0 0 127 0" result="hardAlpha"/>
<feOffset dy="13"/>
<feGaussianBlur stdDeviation="9.5"/>
<feColorMatrix type="matrix" values="0 0 0 0 0 0 0 0 0 0 0 0 0 0 0 0 0 0 0.07 0"/>
<feBlend mode="normal" in2="BackgroundImageFix" result="effect1_dropShadow_2415_26437"/>
<feBlend mode="normal" in="SourceGraphic" in2="effect1_dropShadow_2415_26437" result="shape"/>
</filter>
<clipPath id="clip0_2415_26437">
<rect width="1440" height="6143" fill="white" transform="translate(-254 -1258)"/>
</clipPath>
<clipPath id="clip1_2415_26437">
<rect width="32" height="32" fill="white" transform="translate(0.5)"/>
</clipPath>
<clipPath id="clip2_2415_26437">
<rect width="32" height="32" fill="white" transform="translate(0.5)"/>
</clipPath>
</defs>
</svg>
